<svg xmlns="http://www.w3.org/2000/svg" width="100.873" height="130.502" viewBox="0 0 100.873 130.502">
  <g id="Group_10" data-name="Group 10" transform="translate(-1916.781 -829.769)">
    <path id="Path_29" data-name="Path 29" d="M1954.221,958.815a3.861,3.861,0,0,0,3.023,1.456h48.183a3.856,3.856,0,0,0,3.576-2.4c.074-.182,1.007-2.632,1.359-3.613,1-2.793,2.006-5.833,2.942-9.022a120.76,120.76,0,0,0,3.435-14.81c1.63-10.2,1.176-18.363-2.235-23.958-3.547-5.819-9.88-10.008-18.145-12.974a78.3,78.3,0,0,0-13.408-3.42c-1.591-.268-2.579-.384-2.579-.384V854.7a11.541,11.541,0,0,0-11.564-11.5h-1.928a11.547,11.547,0,0,0-11.564,11.515l1.169,24.454s.5,29.779-1.162,36.183c-3.208,12.363-12.837-11.185-12.837-11.185-8.244-7.183-19.715-5.275-25.142,4.183a3.873,3.873,0,0,0,.258,4.4Zm-27.566-49.671c3.147-2.4,7.294-2.211,10.755.8l19.223,16.749a3.856,3.856,0,0,0,6.393-2.888v-69.09a3.853,3.853,0,0,1,3.854-3.838h1.928a3.847,3.847,0,0,1,3.854,3.819v38.4a3.845,3.845,0,0,0,3.575,3.828c.239.018.73.063,1.436.143,1.2.136,2.545.323,3.995.566a70.82,70.82,0,0,1,12.077,3.073c6.761,2.427,11.708,5.7,14.169,9.735,2.211,3.628,2.578,10.217,1.212,18.77a113.364,113.364,0,0,1-3.222,13.86c-.891,3.036-1.846,5.934-2.8,8.592a7.807,7.807,0,0,0-.314.927h-43.618l-33.714-42.327A9.356,9.356,0,0,1,1926.655,909.144Z" fill="#3d58a6"/>
    <path id="Path_30" data-name="Path 30" d="M1993.34,850.429a26.011,26.011,0,1,0-37.907,28.018,3.842,3.842,0,1,0,3.685-6.742,18.309,18.309,0,1,1,17.657-.1,3.842,3.842,0,1,0,3.762,6.7,25.894,25.894,0,0,0,13.224-20.2h11.317v3.847c0,1.036.7,1.409,1.574.79L2017,855.387a1.281,1.281,0,0,0,0-2.239l-10.344-7.357c-.886-.63-1.574-.264-1.574.791v3.847Z" fill="#3d58a6"/>
  </g>
</svg>
